<?xml version="1.0" encoding="UTF-8" standalone="no"?>
<svg
   xmlns:dc="http://purl.org/dc/elements/1.1/"
   xmlns:cc="http://creativecommons.org/ns#"
   xmlns:rdf="http://www.w3.org/1999/02/22-rdf-syntax-ns#"
   xmlns:svg="http://www.w3.org/2000/svg"
   xmlns="http://www.w3.org/2000/svg"
   version="1.1"
   id="svg4766"
   viewBox="0 0 587.0246 296.6713"
   height="83.727234mm"
   width="165.67139mm">
  <defs
     id="defs4768" />
  <metadata
     id="metadata4771">
    <rdf:RDF>
      <cc:Work
         rdf:about="">
        <dc:format>image/svg+xml</dc:format>
        <dc:type
           rdf:resource="http://purl.org/dc/dcmitype/StillImage" />
        <dc:title></dc:title>
      </cc:Work>
    </rdf:RDF>
  </metadata>
  <g
     transform="translate(-66.48771,-135.56609)"
     id="layer1">
    <path
       id="path4199"
       d="m 66.48771,429.50377 c 0,-97.4164 0,-194.83281 0,-292.24921 66.81942,0 133.63884,0 200.45826,0 0,23.32505 0,46.65011 0,69.97516 -40.06421,0 -80.12843,0 -120.19264,0 0,16.19033 0,32.38066 0,48.57099 32.65508,0 65.31015,0 97.96523,0 0,21.67858 0,43.35716 0,65.03574 -32.65508,0 -65.31015,0 -97.96523,0 0,36.22244 0,72.44488 0,108.66732 -26.75521,0 -53.510413,0 -80.26562,0 z"
       style="font-style:normal;font-variant:normal;font-weight:900;font-stretch:normal;font-size:180px;line-height:125%;font-family:Raleway;-inkscape-font-specification:'Raleway Heavy';letter-spacing:-7.85000181px;word-spacing:0px;fill:#ffffff;fill-opacity:1;stroke:none;stroke-width:1px;stroke-linecap:butt;stroke-linejoin:miter;stroke-opacity:1" />
    <path
       id="path4203"
       d="m 573.24666,429.50377 c 0,-97.4164 0,-194.83281 0,-292.24921 26.75521,0 53.51042,0 80.26563,0 0,97.4164 0,194.83281 0,292.24921 -26.75521,0 -53.51042,0 -80.26563,0 z"
       style="font-style:normal;font-variant:normal;font-weight:900;font-stretch:normal;font-size:180px;line-height:125%;font-family:Raleway;-inkscape-font-specification:'Raleway Heavy';letter-spacing:-7.85000181px;word-spacing:0px;fill:#ffffff;fill-opacity:1;stroke:none;stroke-width:1px;stroke-linecap:butt;stroke-linejoin:miter;stroke-opacity:1" />
    <g
       style="fill:#ffffff;fill-opacity:1"
       id="g4715"
       transform="matrix(1.1504579,0,0,1.1504579,-442.3773,-503.05316)">
      <path
         id="path4201"
         d="m 740.39623,555.13656 c -61.07875,-1.54411 -118.55016,46.09942 -128.02807,106.51561 -11.63633,61.85884 28.68753,128.2846 89.28515,145.84858 56.29473,17.64436 122.38388,-8.6438 150.3976,-60.7222 33.22828,-55.67501 13.65194,-133.72563 -39.69954,-169.47592 -20.95172,-14.74332 -46.34346,-22.50321 -71.95514,-22.16607 z m 58.47197,77.2909 c -8.04481,40.10291 -16.08962,80.20583 -24.13442,120.30875 -13.48704,-9.0272 -26.97409,-18.0544 -40.46113,-27.08161 -8.23098,6.33183 -16.46197,12.66367 -24.69296,18.99549 -5.47734,-12.79649 -9.41599,-26.91558 -15.85659,-38.88411 -11.25963,-6.45968 -22.51925,-12.91936 -33.77887,-19.37903 46.30799,-17.9865 92.61598,-35.973 138.92397,-53.95949 z m -29.14601,24.47564 c -21.11931,13.74622 -42.23862,27.49245 -63.35793,41.23868 1.52736,9.91283 3.05472,19.82567 4.58208,29.7385 3.35713,-9.19162 5.98838,-18.84372 14.27187,-24.91016 14.83466,-15.35567 29.66932,-30.71134 44.50398,-46.06702 z"
         clip-path="none"
         style="font-style:normal;font-variant:normal;font-weight:900;font-stretch:normal;font-size:180px;line-height:125%;font-family:Raleway;-inkscape-font-specification:'Raleway Heavy';letter-spacing:-7.85000181px;word-spacing:0px;fill:#ffffff;fill-opacity:1;stroke:none;stroke-width:1px;stroke-linecap:butt;stroke-linejoin:miter;stroke-opacity:1" />
      <g
         style="fill:#ffffff;fill-opacity:1"
         transform="matrix(0.46720493,0,0,0.46720493,659.94381,624.9531)"
         id="g4179"
         clip-path="none">
        <g
           style="fill:#ffffff;fill-opacity:1"
           id="XMLID_496_" />
        <g
           style="fill:#ffffff;fill-opacity:1"
           id="g4143" />
        <g
           style="fill:#ffffff;fill-opacity:1"
           id="g4145" />
        <g
           style="fill:#ffffff;fill-opacity:1"
           id="g4147" />
        <g
           style="fill:#ffffff;fill-opacity:1"
           id="g4149" />
        <g
           style="fill:#ffffff;fill-opacity:1"
           id="g4151" />
        <g
           style="fill:#ffffff;fill-opacity:1"
           id="g4153" />
        <g
           style="fill:#ffffff;fill-opacity:1"
           id="g4155" />
        <g
           style="fill:#ffffff;fill-opacity:1"
           id="g4157" />
        <g
           style="fill:#ffffff;fill-opacity:1"
           id="g4159" />
        <g
           style="fill:#ffffff;fill-opacity:1"
           id="g4161" />
        <g
           style="fill:#ffffff;fill-opacity:1"
           id="g4163" />
        <g
           style="fill:#ffffff;fill-opacity:1"
           id="g4165" />
        <g
           style="fill:#ffffff;fill-opacity:1"
           id="g4167" />
        <g
           style="fill:#ffffff;fill-opacity:1"
           id="g4169" />
        <g
           style="fill:#ffffff;fill-opacity:1"
           id="g4171" />
      </g>
    </g>
  </g>
</svg>
