<svg id="foi_logo" xmlns:rdf="http://www.w3.org/1999/02/22-rdf-syntax-ns#" xmlns="http://www.w3.org/2000/svg" viewBox="0 0 249.9048 264.72101" height="74.71mm" width="70.529mm" version="1.1">
 <g id="layer1" transform="translate(488.67 -115.34)">
  <path id="foi_logo_o" d="m-253.76 262.39c2.5281 66.581-70.213 120.1-133.01 98.085-64.312-17.274-94.054-102.55-54.397-156.06 35.509-56.357 125.76-59.553 165.16-5.8489 14.33 17.963 22.303 40.846 22.246 63.821z" stroke="#fff" stroke-width="30" fill="none"/>
  <path id="foi_logo_f_1" d="m-414.98 115.34c0.003 4.9114 0.007 9.8227 0.01 14.734-10.793 4.6378-23.846 9.4525-28.812 21.033-0.7237 11.1-0.11117 22.289-0.29425 33.425-10.026 1.6415-20.053 3.2829-30.079 4.9244 0.1756-20.522-0.2044-41.07 0.32329-61.574 0.81012-10.935 12.286-13.34 21.218-12.413 12.545-0.0429 25.089-0.0857 37.634-0.12861z" fill="#fff"/>
  <path id="foi_logo_f_2" d="m-488.67 184.2h15.946c0.0123 9.7239 0.0247 19.448 0.037 29.172-5.3119-0.005-10.624-0.0107-15.936-0.016-0.0158-9.7186-0.0315-19.437-0.0473-29.156z" fill="#fff" />
  <path id="foi_logo_f_3" d="m-474.06 184.19h29.6v79.187h-29.6v-79.187z" fill="#fff"/>
  <path id="foi_logo_i" d="m-268.68 184.19h29.823v77.625h-29.823v-77.625z" fill="#fff"/>
  <path id="foi_logo_i_dot" fill="#ff4646" d="m-238.81 130.15c0.68387 12.598-16.783 19.69-25.07 10.171-9.1172-8.4308-1.9265-25.434 10.472-24.769 7.8564-0.156 14.753 6.7369 14.598 14.598z"/>
 </g>
</svg>
